HIERARCHY
ROOT Hips
{
  OFFSET 0 0 0
  CHANNELS 6 Xposition Yposition Zposition Zrotation Yrotation Xrotation
  JOINT LeftThigh
  {
    OFFSET 8.409438 0 -5.917753
    CHANNELS 3 Zrotation Yrotation Xrotation
    JOINT LeftLeg
    {
      OFFSET 0 0 -42.358652
      CHANNELS 3 Zrotation Yrotation Xrotation
      JOINT LeftFoot
      {
        OFFSET 0 0 -39.357303
        CHANNELS 3 Zrotation Yrotation Xrotation
      }
    }
  }
  JOINT RightThigh
  {
    OFFSET -8.409438 0 -5.917753
    CHANNELS 3 Zrotation Yrotation Xrotation
    JOINT RightLeg
    {
      OFFSET 0 0 -42.358652
      CHANNELS 3 Zrotation Yrotation Xrotation
      JOINT RightFoot
      {
        OFFSET 0 0 -39.357303
        CHANNELS 3 Zrotation Yrotation Xrotation
      }
    }
  }
  JOINT SpineLow
  {
    OFFSET 0 0 4.719101
    CHANNELS 3 Zrotation Yrotation Xrotation
    JOINT SpineMid
    {
      OFFSET 0 0 12.899191
      CHANNELS 3 Zrotation Yrotation Xrotation
      JOINT Chest
      {
        OFFSET 0 0 12.899191
        CHANNELS 3 Zrotation Yrotation Xrotation
        JOINT LeftShoulder
        {
          OFFSET 7.550562 1.41573 9.438202
          CHANNELS 3 Zrotation Yrotation Xrotation
          JOINT LeftArm
          {
            OFFSET 9.155056 0 4.247191
            CHANNELS 3 Zrotation Yrotation Xrotation
            JOINT LeftForearm
            {
              OFFSET 0 0 25.771955
              CHANNELS 3 Zrotation Yrotation Xrotation
              JOINT LeftHand
              {
                OFFSET 0 0 25.197169
                CHANNELS 3 Zrotation Yrotation Xrotation
              }
            }
          }
        }
        JOINT RightShoulder
        {
          OFFSET -7.550562 1.41573 9.438202
          CHANNELS 3 Zrotation Yrotation Xrotation
          JOINT RightArm
          {
            OFFSET -9.155056 0 4.247191
            CHANNELS 3 Zrotation Yrotation Xrotation
            JOINT RightForearm
            {
              OFFSET 0 0 -25.771955
              CHANNELS 3 Zrotation Yrotation Xrotation
              JOINT RightHand
              {
                OFFSET 0 0 -25.197169
                CHANNELS 3 Zrotation Yrotation Xrotation
              }
            }
          }
        }
        JOINT Neck
        {
          OFFSET 0 0 15.101124
          CHANNELS 3 Zrotation Yrotation Xrotation
          JOINT Head
          {
            OFFSET 0 0 11.325843
            CHANNELS 3 Zrotation Yrotation Xrotation
            End Site
            {
              OFFSET 0 0 14.157303
            }
          }
        }
      }
    }
  }
}
MOTION
Frames: 11
Frame Time: 0.0
0.0  93.25843  0.0  -1.519777  -31.708883  -86.588068  16.749284  -13.926424  -6.01603  3.58687  -2.162766  16.31681  11.310255  2.154956  5.599908  5.12611  -2.117566  -20.029203  -3.149199  12.087774  14.588958  5.499173  1.928834  0.484336  4.248503  0.023405  -1.451761  11.606714  0.31813  -3.950105  11.606714  0.318131  -3.950105  -14.292963  17.247172  7.734802  176.788173  36.714608  -134.851633  5.828118  -17.656313  91.016137  106.959037  13.688037  -6.166719  8.087679  -14.311568  27.311981  99.446271  38.819367  39.141647  -14.851359  -3.941474  -61.004257  75.079602  -12.393443  29.262148  -7.145213  6.048771  20.59622  -5.566037  4.302368  15.506108  
0.0  93.25843  0.0  -1.545291  -37.956691  -86.851073  17.891079  -13.801379  -3.918287  6.567086  -2.376902  15.308288  12.242126  2.155095  5.939768  7.676064  -2.598248  -19.974252  -1.786467  11.600344  13.665524  5.364781  1.528831  0.570634  4.48466  -0.01386  -1.552952  12.253491  0.249468  -4.230659  12.253491  0.249468  -4.230659  -12.620788  16.158876  8.879846  -179.183003  33.924342  -134.56928  6.689436  -20.977838  91.224955  107.897643  13.722168  -6.674014  7.462348  -13.412119  28.397349  100.843757  37.743704  40.047024  -15.436977  -11.757837  -66.519932  73.637011  -10.466498  27.303026  -4.661676  6.247631  21.127415  -3.714926  4.531385  15.878616  
0.0  93.25843  0.0  -1.678999  -43.877966  -87.111138  18.755227  -13.802246  -1.957945  9.787277  -2.52859  14.626096  12.884724  2.19791  6.194563  10.114125  -3.202397  -19.40389  -1.247231  11.155658  12.21187  5.406387  1.128017  0.67899  4.669642  -0.053253  -1.636152  12.7609  0.170114  -4.46338  12.7609  0.170114  -4.46338  -11.50196  15.196996  9.770326  -174.604235  30.540705  -134.587501  7.413701  -23.558303  91.335981  108.566821  13.886251  -7.9802  6.570238  -12.326656  29.505983  102.575682  36.819842  41.297598  -14.664256  -19.478378  -73.120261  71.952758  -8.699951  24.301822  -2.379941  6.207857  21.45418  -2.004975  4.579158  16.099314  
0.0  93.25843  0.0  -1.985918  -49.13117  -87.327626  20.392514  -13.887293  0.508891  11.933841  -2.515039  13.363166  13.029582  2.220007  6.223974  12.153047  -3.702853  -18.805743  -1.081365  10.676258  11.075244  5.522557  1.077883  0.636157  4.748275  -0.07791  -1.692363  12.977082  0.11935  -4.620693  12.977082  0.11935  -4.620693  -10.914849  14.215914  10.386594  -169.91724  27.348917  -135.455822  7.142326  -25.013908  91.99058  108.829965  14.4609  -10.785067  5.542806  -11.166063  30.399912  104.350904  36.054332  42.757919  -12.355568  -25.589686  -80.335258  69.726838  -6.731675  20.03654  -0.051071  5.991525  21.629993  -0.251544  4.498507  16.20814  
0.0  93.25843  0.0  -2.281506  -53.163661  -87.358065  20.091719  -13.609985  1.493257  14.938248  -3.0273  13.648987  13.057767  2.307592  6.382515  13.004119  -4.251424  -18.307515  -0.770964  10.533462  10.241452  5.705498  1.02538  0.445536  4.626327  -0.095721  -1.754801  12.644888  0.074295  -4.794685  12.644888  0.074295  -4.794685  -10.920242  13.889924  10.67032  -165.800939  25.550225  -137.020552  5.481307  -25.09506  92.531117  108.551068  15.14458  -15.478057  4.646332  -9.837214  31.167918  105.632669  35.481469  44.274038  -8.840339  -28.901963  -88.006078  67.462401  -4.459639  15.607805  2.2543  5.798552  21.68878  1.484939  4.435559  16.231495  
0.0  93.25843  0.0  -2.44794  -55.945804  -87.205364  19.803943  -13.449721  1.471602  16.539755  -3.69837  14.443074  13.128542  2.687843  6.575585  12.977855  -4.693627  -17.752925  -0.067567  10.304903  9.077816  5.775326  1.049809  0.411931  4.271415  -0.073809  -1.886034  11.673083  0.131338  -5.149831  11.673084  0.131338  -5.149831  -10.580553  13.852624  11.328411  -162.856048  24.757772  -138.359392  3.775986  -24.181382  91.558106  107.807563  14.59262  -21.063333  4.277244  -8.637622  32.292633  105.644941  35.379548  45.506906  -4.815141  -30.558413  -95.585118  67.080244  -1.40693  11.551659  4.725108  5.539628  21.876253  3.347182  4.330664  16.35267  
0.0  93.25843  0.0  -2.324433  -57.487404  -87.075353  20.135067  -13.339249  0.922579  16.588262  -3.744841  15.297703  13.323334  2.806641  6.613949  13.427705  -4.559207  -17.207235  0.134073  9.736517  7.691041  5.526942  1.207797  0.358264  3.731635  0.134513  -1.870976  10.18292  0.654504  -5.079564  10.182921  0.654504  -5.079564  -10.59977  13.442596  11.185227  -160.142643  24.843806  -138.801003  2.815895  -23.301053  88.261549  107.127785  12.234467  -24.995518  4.163363  -8.39889  32.434415  104.177894  35.662918  46.688384  -0.155434  -32.163909  -102.973992  69.13242  2.922195  7.244065  7.043978  4.952833  21.359309  5.113542  3.96712  15.954917  
0.0  93.25843  0.0  -2.207605  -58.039407  -87.005803  20.850449  -13.330976  0.439653  15.619607  -3.567509  15.713733  13.912463  2.88703  6.932072  14.728847  -4.13087  -16.782768  -0.108001  9.27424  6.886254  5.095445  1.16365  0.244553  3.26966  0.159803  -1.872147  8.919049  0.688264  -5.085165  8.919049  0.688264  -5.085164  -12.288456  14.318699  10.289475  -157.555435  25.740762  -139.95419  2.466271  -22.842659  83.653617  106.961664  9.971601  -25.044588  2.904055  -7.633326  33.279049  101.063665  35.965405  47.809985  4.595045  -30.841568  -109.906876  68.712189  8.251687  1.413905  8.532127  4.971463  21.281199  6.23049  4.03236  15.885142  
0.0  93.25843  0.0  -2.386007  -57.726843  -86.849113  21.662409  -13.736108  0.049689  14.436439  -3.16994  15.946474  14.222129  2.842243  7.081002  16.158908  -3.991482  -16.307926  -0.69279  9.301385  6.567129  4.860004  1.134013  0.195112  2.694651  0.159371  -1.996114  7.346857  0.656771  -5.430811  7.346857  0.65677  -5.43081  -13.786615  15.289026  9.884736  -155.054979  27.571996  -140.975914  3.316179  -22.676032  77.667277  106.112516  9.356514  -21.45602  1.936152  -7.661886  35.004049  96.557944  36.268664  48.579512  6.106474  -27.404362  -115.472707  63.478454  11.555399  -7.780593  10.02874  4.842551  21.742805  7.355455  3.995932  16.223139  
0.0  93.25843  0.0  -2.540718  -56.609456  -86.812633  22.342191  -14.345224  -0.389395  13.463187  -2.731862  16.25895  14.4353  2.848537  7.318724  16.737298  -3.960405  -15.77011  -1.035698  9.505791  6.404341  4.288941  0.98646  0.122589  2.087573  0.031646  -2.168563  5.69809  0.273325  -5.919771  5.69809  0.273325  -5.919771  -14.425508  16.769908  9.951266  -154.616734  29.807893  -142.025352  4.712016  -21.887707  70.297306  104.414105  9.995078  -16.119359  0.691238  -7.048706  36.639793  91.673695  36.304601  49.284302  8.909995  -24.761072  -119.709339  59.204208  13.201629  -15.514183  11.958589  5.0739  22.820374  8.787743  4.260884  17.012594  
0.0  93.25843  0.0  -2.401856  -55.006049  -87.066566  23.065207  -14.844029  -0.872399  12.683127  -2.404746  16.558561  14.11536  2.775326  7.253033  16.326831  -3.744825  -15.438279  -1.170767  9.589039  6.715629  3.986043  0.948506  0.190803  1.357075  -0.078631  -2.316116  3.713045  -0.084777  -6.332995  3.713045  -0.084777  -6.332995  -13.557918  18.096026  10.44828  -156.144252  32.795595  -142.469599  6.209371  -19.197291  61.415942  102.087148  10.330928  -11.008224  0.643182  -6.747374  37.697482  86.51449  36.272971  50.077601  13.128345  -24.406295  -124.973308  59.596643  12.161452  -18.05479  13.566311  5.479519  23.608902  9.972464  4.644526  17.581873  
